<svg fill="none" xmlns="http://www.w3.org/2000/svg" viewBox="0 0 444 444"><circle cx="222" cy="222" r="222" fill="#B60B0B"/><path d="M152.5 208.5h-28.8c-.2-2.3-.8-4.5-1.7-6.4a15 15 0 0 0-9-8.3c-2.2-.8-4.6-1.2-7.3-1.2-4.8 0-8.8 1.2-12.1 3.5a21.4 21.4 0 0 0-7.5 10 43.4 43.4 0 0 0-2.5 15.5c0 6.4.8 11.8 2.5 16.1 1.8 4.3 4.3 7.6 7.6 9.8a21 21 0 0 0 11.8 3.2c2.6 0 5-.3 7-1 2.1-.7 4-1.6 5.5-3 1.5-1.2 2.7-2.7 3.7-4.5 1-1.8 1.6-3.8 2-6l28.8.2a39 39 0 0 1-3.7 13.5 44 44 0 0 1-23.7 22 53.4 53.4 0 0 1-20.2 3.5c-9.7 0-18.3-2-26-6.2A44.9 44.9 0 0 1 61 251c-4.4-8-6.6-17.8-6.6-29.4 0-11.6 2.3-21.4 6.8-29.4A45 45 0 0 1 79.3 174a58.7 58.7 0 0 1 43.8-3.5 44 44 0 0 1 14.6 8c4.2 3.4 7.6 7.7 10.2 12.7 2.5 5 4 10.8 4.6 17.3Zm41.6 21.3V274h-28.3V169.3H193v41h.9c1.7-5 4.7-8.8 8.8-11.6 4.1-2.9 9-4.3 14.9-4.3a25.5 25.5 0 0 1 24 14.2c2.3 4.5 3.4 9.6 3.4 15.3V274h-28.2v-44.2c0-3.9-1-7-3-9.1-1.9-2.3-4.7-3.4-8.3-3.4-2.3 0-4.3.6-6 1.6-1.7 1-3 2.4-4 4.3-1 1.8-1.4 4-1.4 6.6Zm86.7 45.4c-5 0-9.4-.8-13.3-2.4a20 20 0 0 1-9-7.6 23.3 23.3 0 0 1-3.3-12.9c0-4.3.8-8 2.2-11 1.5-3 3.6-5.6 6.2-7.5a29 29 0 0 1 9.1-4.4c3.5-1 7.3-1.7 11.4-2 4.4-.4 8-.8 10.6-1.3 2.7-.5 4.6-1.2 5.8-2 1.2-1 1.8-2.2 1.8-3.7v-.2c0-2-.8-3.6-2.4-4.7-1.5-1-3.5-1.6-6-1.6-2.7 0-4.9.6-6.6 1.8a7.4 7.4 0 0 0-3 5.3h-26a26.8 26.8 0 0 1 16.5-22.9 45.8 45.8 0 0 1 19.5-3.7 53 53 0 0 1 15.1 2c4.5 1.3 8.3 3.1 11.5 5.5a24 24 0 0 1 7.1 8.2 21 21 0 0 1 2.5 10.1V274h-26.4v-11h-.6a21 21 0 0 1-13.3 11c-2.9.8-6 1.2-9.4 1.2Zm9.2-17.8a14 14 0 0 0 6-1.3c2-.9 3.5-2.2 4.7-3.8 1.2-1.7 1.8-3.7 1.8-6.1v-6.6a32.5 32.5 0 0 1-5 1.7 49.5 49.5 0 0 1-6.3 1.2c-2.1.3-4 .9-5.3 1.7a8 8 0 0 0-3 2.8 7 7 0 0 0-1 3.7c0 2.2.7 3.8 2.2 5a9.5 9.5 0 0 0 6 1.7Zm100.8-62V216h-51.7v-20.4h51.7Zm-41.7-18.8h28.2v72.1c0 1.1.2 2 .6 2.8.4.7 1 1.3 1.7 1.6.8.4 1.8.5 3 .5 1 0 1.9 0 3-.3l2.6-.5 4 19.9-5.3 1.4c-2.4.5-5.1.9-8.3 1-6.5.4-12-.3-16.3-2a19.4 19.4 0 0 1-10-8 25.4 25.4 0 0 1-3.2-13.7v-74.8Z" fill="#fff"/></svg>